<svg t="1776254015950" class="icon" viewBox="0 0 1024 1024" version="1.1" xmlns="http://www.w3.org/2000/svg" p-id="1092" width="48" height="48"><path d="M518.9632 111.1552a260.8128 260.8128 0 0 0-262.2976 268.9536c7.1168 204.8 163.328 325.376 246.784 370.8928a28.1088 28.1088 0 0 0 27.904-0.5632c79.7184-48.1792 247.5008-183.6032 247.5008-384.8704 0-140.288-116.224-253.696-259.8912-254.4128z m-1.3312 341.504a87.04 87.04 0 1 1 89.3952-87.04 88.2688 88.2688 0 0 1-89.3952 87.04z" fill="#9088FF" p-id="1093"></path><path d="M774.2976 562.8928c-66.56 107.52-155.904 184.9344-220.928 226.1504a69.0688 69.0688 0 0 1-71.68 1.4336c-70.4-40.5504-153.9072-118.784-225.28-227.0208-115.4048 34.6112-204.8 95.6416-204.8 159.0272 0 105.1648 206.7968 190.464 461.9264 190.464s461.9264-85.2992 461.9264-190.464c0.1536-63.2832-86.0672-124.928-201.1648-159.5904z"  p-id="1094"></path></svg>